<?xml version="1.0" standalone="no"?>
<!DOCTYPE svg PUBLIC "-//W3C//DTD SVG 20010904//EN"
 "http://www.w3.org/TR/2001/REC-SVG-20010904/DTD/svg10.dtd">
<svg version="1.0" xmlns="http://www.w3.org/2000/svg"
 width="1200.000000pt" height="1200.000000pt" viewBox="0 0 1200.000000 1200.000000"
 preserveAspectRatio="xMidYMid meet">

<g transform="translate(0.000000,1200.000000) scale(0.100000,-0.100000)"
fill="#000000" stroke="none">
<path d="M0 6000 l0 -6000 6000 0 6000 0 0 6000 0 6000 -6000 0 -6000 0 0
-6000z m7074 2290 c51 -19 56 -47 56 -314 0 -162 -4 -254 -11 -270 -23 -50
-56 -56 -314 -56 -258 0 -291 6 -314 56 -7 16 -11 108 -11 270 0 264 5 295 53
314 30 12 509 12 541 0z m-1634 -615 c31 -16 36 -28 150 -341 l63 -172 -19
-38 c-19 -39 -20 -39 -259 -127 -252 -91 -280 -96 -318 -58 -22 21 -187 469
-187 506 0 50 35 71 275 159 127 47 238 85 248 85 10 1 31 -6 47 -14z m921
-130 c16 -9 34 -27 39 -41 14 -35 13 -520 0 -545 -24 -44 -54 -49 -314 -49
-162 0 -254 4 -270 11 -52 24 -57 56 -54 330 l3 251 33 29 32 29 251 0 c206 0
255 -3 280 -15z m718 1 c47 -25 51 -47 51 -311 0 -264 -4 -286 -51 -311 -37
-19 -504 -21 -544 -2 -51 23 -55 46 -55 315 1 265 4 283 51 309 36 20 509 20
548 0z m-1438 -764 l29 -32 0 -251 c0 -272 -5 -300 -56 -319 -14 -6 -140 -10
-279 -10 l-254 0 -28 24 -28 24 -3 258 c-2 186 0 266 9 287 22 53 48 57 327
54 l254 -2 29 -33z m718 24 c48 -25 51 -47 51 -322 l0 -256 -29 -29 -29 -29
-257 0 c-281 0 -302 4 -324 58 -9 20 -11 102 -9 279 3 235 4 252 23 273 11 12
29 26 40 31 11 4 129 8 263 8 192 1 249 -2 271 -13z m742 -24 l29 -32 0 -251
c0 -272 -5 -300 -56 -319 -14 -6 -140 -10 -279 -10 l-254 0 -28 24 -28 24 -3
258 c-2 176 1 266 8 285 23 55 49 59 328 57 l254 -3 29 -33z m-2317 -1002 c14
-5 32 -20 41 -33 8 -13 44 -155 79 -316 35 -161 67 -295 70 -299 15 -14 27 29
87 302 68 315 78 339 143 352 41 7 86 -14 105 -49 7 -14 41 -155 76 -313 43
-203 66 -289 75 -289 10 0 32 86 76 286 34 157 69 301 79 318 43 84 175 53
175 -41 0 -58 -196 -817 -217 -841 -23 -26 -74 -47 -114 -47 -41 0 -97 27
-111 54 -6 11 -35 116 -63 231 -35 147 -55 210 -64 210 -10 0 -28 -61 -61
-204 -27 -112 -53 -214 -59 -227 -34 -75 -174 -84 -235 -16 -19 22 -215 781
-216 837 0 69 66 111 134 85z m1668 -12 c49 -32 49 -122 0 -155 -22 -14 -52
-18 -159 -21 l-133 -4 0 -94 0 -94 78 -1 c107 0 143 -14 161 -62 13 -34 12
-42 -2 -72 -20 -41 -60 -55 -164 -55 l-73 0 0 -99 0 -99 133 -4 c105 -3 139
-7 160 -21 49 -32 46 -123 -6 -157 -28 -19 -396 -28 -440 -11 -55 21 -57 41
-57 481 0 432 3 459 52 480 13 5 111 9 223 7 170 -2 205 -5 227 -19z m669 -2
c26 -9 65 -32 87 -51 112 -96 95 -296 -31 -361 l-28 -15 53 -27 c72 -38 111
-100 116 -187 9 -137 -53 -238 -174 -286 -54 -21 -74 -23 -237 -24 l-179 0
-24 28 -24 28 0 427 c0 462 0 460 54 483 37 16 334 4 387 -15z m-1760 -1676
c106 -20 184 -76 223 -160 29 -62 29 -186 -1 -251 -48 -107 -142 -158 -310
-166 l-102 -6 -3 -168 c-3 -192 -9 -206 -85 -216 -57 -7 -99 17 -112 65 -14
50 -14 794 0 844 16 59 41 67 200 68 75 0 160 -5 190 -10z m891 -13 c49 -33
49 -123 0 -155 -20 -13 -54 -18 -159 -20 l-133 -4 0 -94 0 -94 78 -1 c107 0
143 -14 161 -62 13 -34 12 -42 -2 -72 -20 -41 -60 -55 -164 -55 l-73 0 0 -100
0 -100 108 0 c127 -1 181 -11 205 -41 31 -38 18 -111 -26 -139 -28 -19 -396
-28 -440 -11 -55 21 -57 41 -57 481 0 432 3 459 52 480 13 5 111 9 223 7 175
-2 203 -4 227 -20z m610 12 c94 -20 152 -60 191 -134 21 -38 22 -52 22 -320 0
-334 -4 -355 -80 -431 -72 -72 -130 -87 -328 -82 l-149 3 -24 28 -24 28 0 427
c0 462 0 460 54 482 31 13 276 12 338 -1z"/>
<path d="M6890 5510 l0 -122 70 4 c60 3 74 8 98 31 23 24 27 35 26 83 0 48 -4
59 -32 86 -27 28 -39 33 -97 36 l-65 4 0 -122z"/>
<path d="M6890 5110 l0 -130 65 0 c39 0 78 6 95 15 61 31 79 124 37 186 -31
46 -61 59 -134 59 l-63 0 0 -130z"/>
<path d="M5170 3806 l0 -126 68 0 c82 0 126 23 149 77 20 50 11 100 -27 137
-28 28 -37 31 -110 34 l-80 4 0 -126z"/>
<path d="M6680 3615 l0 -325 65 0 c57 0 68 3 97 29 l33 29 3 249 c2 221 1 252
-15 283 -23 45 -54 60 -125 60 l-58 0 0 -325z"/>
</g>
</svg>
